<mxfile host="app.diagrams.net" modified="2024-02-27T00:10:54.366Z" agent="Mozilla/5.0 (Macintosh; Intel Mac OS X 10.15; rv:122.0) Gecko/20100101 Firefox/122.0" etag="lQkFrhMolo1PRrZDGdNC" version="23.1.4" type="device">
  <diagram name="Page-1" id="zgJadQMesTNFjbjxJyYI">
    <mxGraphModel dx="1434" dy="942" grid="1" gridSize="10" guides="1" tooltips="1" connect="1" arrows="1" fold="1" page="1" pageScale="1" pageWidth="850" pageHeight="1100" math="0" shadow="0">
      <root>
        <mxCell id="0" />
        <mxCell id="1" parent="0" />
        <mxCell id="NY4R91OFejQcONnBK684-14" value="" style="group" vertex="1" connectable="0" parent="1">
          <mxGeometry x="120" y="200" width="560" height="440" as="geometry" />
        </mxCell>
        <mxCell id="NY4R91OFejQcONnBK684-1" value="&lt;font style=&quot;font-size: 24px;&quot;&gt;Tightly-Integrated Quantum Stack&lt;/font&gt;" style="rounded=0;whiteSpace=wrap;html=1;fillColor=#e1d5e7;strokeColor=#9673a6;" vertex="1" parent="NY4R91OFejQcONnBK684-14">
          <mxGeometry width="280" height="160" as="geometry" />
        </mxCell>
        <mxCell id="NY4R91OFejQcONnBK684-3" value="&lt;font style=&quot;font-size: 18px;&quot;&gt;IBM&lt;/font&gt;" style="ellipse;whiteSpace=wrap;html=1;fillColor=#e1d5e7;strokeColor=#9673a6;" vertex="1" parent="NY4R91OFejQcONnBK684-14">
          <mxGeometry x="100" y="200" width="80" height="60" as="geometry" />
        </mxCell>
        <mxCell id="NY4R91OFejQcONnBK684-4" value="&lt;font style=&quot;font-size: 18px;&quot;&gt;XANADU&lt;/font&gt;" style="ellipse;whiteSpace=wrap;html=1;fillColor=#e1d5e7;strokeColor=#9673a6;" vertex="1" parent="NY4R91OFejQcONnBK684-14">
          <mxGeometry x="100" y="280" width="80" height="60" as="geometry" />
        </mxCell>
        <mxCell id="NY4R91OFejQcONnBK684-5" value="&lt;font style=&quot;font-size: 18px;&quot;&gt;D-Wave&lt;/font&gt;" style="ellipse;whiteSpace=wrap;html=1;fillColor=#e1d5e7;strokeColor=#9673a6;" vertex="1" parent="NY4R91OFejQcONnBK684-14">
          <mxGeometry x="100" y="360" width="80" height="60" as="geometry" />
        </mxCell>
        <mxCell id="NY4R91OFejQcONnBK684-6" value="&lt;font style=&quot;font-size: 18px;&quot;&gt;Applications&lt;/font&gt;" style="rounded=0;whiteSpace=wrap;html=1;fillColor=#f8cecc;strokeColor=#b85450;" vertex="1" parent="NY4R91OFejQcONnBK684-14">
          <mxGeometry x="400" y="120" width="160" height="80" as="geometry" />
        </mxCell>
        <mxCell id="NY4R91OFejQcONnBK684-10" style="edgeStyle=orthogonalEdgeStyle;rounded=0;orthogonalLoop=1;jettySize=auto;html=1;exitX=1;exitY=0.5;exitDx=0;exitDy=0;entryX=0;entryY=0.5;entryDx=0;entryDy=0;" edge="1" parent="NY4R91OFejQcONnBK684-14" source="NY4R91OFejQcONnBK684-1" target="NY4R91OFejQcONnBK684-6">
          <mxGeometry relative="1" as="geometry" />
        </mxCell>
        <mxCell id="NY4R91OFejQcONnBK684-7" value="&lt;font style=&quot;font-size: 18px;&quot;&gt;Quantum Algorithms&lt;/font&gt;" style="rounded=0;whiteSpace=wrap;html=1;fillColor=#ffe6cc;strokeColor=#d79b00;" vertex="1" parent="NY4R91OFejQcONnBK684-14">
          <mxGeometry x="400" y="200" width="160" height="80" as="geometry" />
        </mxCell>
        <mxCell id="NY4R91OFejQcONnBK684-11" style="edgeStyle=orthogonalEdgeStyle;rounded=0;orthogonalLoop=1;jettySize=auto;html=1;exitX=1;exitY=0.5;exitDx=0;exitDy=0;entryX=0;entryY=0.5;entryDx=0;entryDy=0;" edge="1" parent="NY4R91OFejQcONnBK684-14" source="NY4R91OFejQcONnBK684-1" target="NY4R91OFejQcONnBK684-7">
          <mxGeometry relative="1" as="geometry" />
        </mxCell>
        <mxCell id="NY4R91OFejQcONnBK684-8" value="&lt;font style=&quot;font-size: 18px;&quot;&gt;Quantum Computing Software&lt;/font&gt;" style="rounded=0;whiteSpace=wrap;html=1;fillColor=#d5e8d4;strokeColor=#82b366;" vertex="1" parent="NY4R91OFejQcONnBK684-14">
          <mxGeometry x="400" y="280" width="160" height="80" as="geometry" />
        </mxCell>
        <mxCell id="NY4R91OFejQcONnBK684-12" style="edgeStyle=orthogonalEdgeStyle;rounded=0;orthogonalLoop=1;jettySize=auto;html=1;exitX=1;exitY=0.5;exitDx=0;exitDy=0;entryX=0;entryY=0.5;entryDx=0;entryDy=0;" edge="1" parent="NY4R91OFejQcONnBK684-14" source="NY4R91OFejQcONnBK684-1" target="NY4R91OFejQcONnBK684-8">
          <mxGeometry relative="1" as="geometry" />
        </mxCell>
        <mxCell id="NY4R91OFejQcONnBK684-9" value="&lt;font style=&quot;font-size: 18px;&quot;&gt;Quantum and Classical Hardware&lt;/font&gt;" style="rounded=0;whiteSpace=wrap;html=1;fillColor=#dae8fc;strokeColor=#6c8ebf;" vertex="1" parent="NY4R91OFejQcONnBK684-14">
          <mxGeometry x="400" y="360" width="160" height="80" as="geometry" />
        </mxCell>
        <mxCell id="NY4R91OFejQcONnBK684-13" style="edgeStyle=orthogonalEdgeStyle;rounded=0;orthogonalLoop=1;jettySize=auto;html=1;exitX=1;exitY=0.5;exitDx=0;exitDy=0;entryX=0;entryY=0.5;entryDx=0;entryDy=0;" edge="1" parent="NY4R91OFejQcONnBK684-14" source="NY4R91OFejQcONnBK684-1" target="NY4R91OFejQcONnBK684-9">
          <mxGeometry relative="1" as="geometry" />
        </mxCell>
      </root>
    </mxGraphModel>
  </diagram>
</mxfile>
